# xmcd
#
# Track frame offsets:
#	150
#	23685
#	40982
#	59014
#	78447
#	92492
#	115822
#	131352
#	147475
#	162652
#	180535
#	200827
#	217267
#	243680
#	269275
#
# Disc length: 3855 seconds
#
# Revision: 1
# Processed by: cddbd v1.4PL0 Copyright (c) Steve Scherf et al.
# Submitted via: audiograbber 1.81.03
#
DISCID=e40f0d0f
DTITLE=Mike Morgan and The Crawl - Low Down And Evil
DYEAR=1997
DGENRE=Blues
TTITLE0=I Don't Want You Hangin Around Here
TTITLE1=She's Taking Me To Heaven
TTITLE2=You're On My Mind
TTITLE3=Lowdown and Evil
TTITLE4=Frankie's Blues
TTITLE5=Where'd You Get Your Sugar From
TTITLE6=Looky Here
TTITLE7=I Just Want To Get To Know You
TTITLE8=I'm Worried
TTITLE9=You Ain't Like You Used To Be
TTITLE10=Blue Cat Blues
TTITLE11=I Gotta Leave
TTITLE12=I Ain't Worried No More
TTITLE13=Kiss Me Baby
TTITLE14=Should've Done Better
EXTD=
EXTT0=
EXTT1=
EXTT2=
EXTT3=
EXTT4=
EXTT5=
EXTT6=
EXTT7=
EXTT8=
EXTT9=
EXTT10=
EXTT11=
EXTT12=
EXTT13=
EXTT14=
PLAYORDER=
